<svg id="Layer_1" data-name="Layer 1" xmlns="http://www.w3.org/2000/svg" viewBox="0 0 649.79 633.28"><title>Semnatura </title><path d="M-435.64,246.38-633.68-317l-.31.11-10.76-30.65-221.6,603.93a21,21,0,0,0,7.72,24.67A21.19,21.19,0,0,0-846.41,285a21.1,21.1,0,0,0,13.61-5l296.17-248.5L-450.32,277A24,24,0,0,0-435.64,246.38Zm-404.59,8.49,195-531.35L-545.57,7.64Z" transform="translate(867.69 348)"/><path d="M-409.4,272.63-627.33-346h0a27.1,27.1,0,0,1,34.57,16.56l185.85,527.55c4.2,11.91,21.29,11.12,24.37-1.13L-250.8-327.49a27.11,27.11,0,0,1,32.89-19.69h0L-373.17,271C-377.74,289.15-403.16,290.33-409.4,272.63Z" transform="translate(867.69 348)"/></svg>