<svg id="Layer_1" data-name="Layer 1" xmlns="http://www.w3.org/2000/svg" viewBox="0 0 1951.67 535.64"><defs><style>.cls-1{fill:none;}.cls-2{fill:#666;}</style></defs><title>Semnatura cu logo doar ca svg</title><polygon class="cls-1" points="253.35 263.45 264.81 294.11 274.63 275.37 263.15 244.65 253.35 263.45"/><polygon class="cls-2" points="274.63 275.37 292.27 241.7 280.7 210.97 263.15 244.65 274.63 275.37"/><path class="cls-2" d="M241.51,235.18,193.45,107.56a64.74,64.74,0,0,0-3.09-9.24c-.89-3.64-4.22-13.44-10-29.32H149.25L211.9,236.54c.09-.45.2-.92.29-1.36Z" transform="translate(36.11 -32.36)"/><path class="cls-2" d="M269.16,308.6l-17.72,33.68,22.09,59.09h37.82q-19.14-31.74-37.26-79.67Z" transform="translate(36.11 -32.36)"/><path class="cls-2" d="M32.35,309.79l15.24-38.22H82.35l16.27-33H61l53.88-133.67,49.76,133.67H130.82l16.28,33H177l9.67,25.91,1.22-2.31q10.15-19.47,16.23-34.5L132.42,69H98.75c.34.83.68,1.65,1,2.5L17.15,277.44c1.6,3.68,3.36,7.52,5.3,11.56Z" transform="translate(36.11 -32.36)"/><path class="cls-2" d="M-14.18,355.56a398.93,398.93,0,0,1-21.54,45.81h37a103.87,103.87,0,0,1,6.86-29.54c3.2-8.2,4.92-12.46,5.15-12.75L15,353.36l4.19-10.52L3.78,310.76Z" transform="translate(36.11 -32.36)"/><path class="cls-2" d="M222.32,401.37h34.39L241.6,361l-19.86,37.72C221.94,399.59,222.14,400.49,222.32,401.37Z" transform="translate(36.11 -32.36)"/><path class="cls-2" d="M217.24,295.81l-18.19,34.9,8.46,22.65c1,2.71,2,5.36,2.94,7.95l18.25-34.84Z" transform="translate(36.11 -32.36)"/><path class="cls-2" d="M5.63,236.49c0-.44,0-.87,0-1.31H-36.11q12.75,18.39,30.76,56.56l9.13,19,13.37-33.32Q5.65,251,5.63,236.49Z" transform="translate(36.11 -32.36)"/><path class="cls-2" d="M22.45,289c-1.94-4-3.7-7.88-5.3-11.56L3.78,310.76l15.4,32.08,13.17-33Z" transform="translate(36.11 -32.36)"/><path class="cls-2" d="M241.51,235.18H212.19c-.09.44-.2.91-.29,1.36a148.09,148.09,0,0,1-7.81,24.13q-6.08,15-16.23,34.5l-1.22,2.31L102.41,456.81l-70.06-147-13.17,33,83.23,173.34,96.64-185.47,18.19-34.9L227,277l17.55-33.68,4.25-8.15Z" transform="translate(36.11 -32.36)"/><path class="cls-2" d="M286.35,276q12.61-24.22,25.92-40.78H276.52l-20.37,38.88,13,34.54Z" transform="translate(36.11 -32.36)"/><polygon class="cls-2" points="264.81 294.11 277.71 328.6 287.55 309.91 274.63 275.37 264.81 294.11"/><path class="cls-2" d="M115.1,543.29l12,24.71h5.49l89.13-169.32a311.85,311.85,0,0,0-11.29-37.37Z" transform="translate(36.11 -32.36)"/><polygon class="cls-2" points="292.27 241.7 274.63 275.37 287.55 309.91 305.28 276.24 292.27 241.7"/><path class="cls-2" d="M210.45,361.31a311.85,311.85,0,0,1,11.29,37.37L241.6,361l-12.9-34.49Z" transform="translate(36.11 -32.36)"/><path class="cls-1" d="M812.21,232q-27.45,0-27.45,53.44,0,47.55,25.69,47.55,9.88,0,17.31-8.59t7.42-24.49V269.81Q835.18,232,812.21,232Z" transform="translate(36.11 -32.36)"/><path class="cls-1" d="M1539.18,230.21q-13.47,0-20.3,10.42t-6.81,41.43q0,28.47,6.5,40.87t20.29,12.41q12.06,0,19.51-10.58t7.45-40.32q0-31.65-6.58-42.94T1539.18,230.21Z" transform="translate(36.11 -32.36)"/><path class="cls-1" d="M608.38,316.25a21.66,21.66,0,0,0,5.24,14.55q5.22,6.13,14.9,6.13,12.53,0,21-10.42T658,300.82V286.19Q608.39,291.13,608.38,316.25Z" transform="translate(36.11 -32.36)"/><path class="cls-2" d="M705.4,260.27q0-21.15-2.86-29.66t-11-16.15Q683.46,206.83,669,203a120.77,120.77,0,0,0-30.85-3.82q-27.36,0-49,11.46t-25.92,38.8L607,253.59q2.85-23.39,27.75-23.38,23.31,0,23.31,23.38v9.22q-47.49,3.51-65.43,10.74t-26,20a50.79,50.79,0,0,0-8.09,27.83q0,20.67,13.89,32.92t36.44,12.25A63.27,63.27,0,0,0,636,360.86q12-5.64,24.05-22.82,0,15.58,2.23,25.13h46q-2.85-9.07-2.86-30.06ZM658,300.82q0,15.27-8.49,25.69t-21,10.42q-9.67,0-14.9-6.13a21.66,21.66,0,0,1-5.24-14.55q0-25.12,49.63-30.06Z" transform="translate(36.11 -32.36)"/><path class="cls-2" d="M835.18,219.39q-13.86-20.19-39.5-20.2-29.16,0-44.53,22.67T735.78,284.6q0,38.49,15.37,60.2t42,21.71q28,0,44.29-28.47v25.13h43.73V146.07h-46Zm0,80.48q0,15.9-7.42,24.49T810.45,333q-25.69,0-25.69-47.55,0-53.44,27.45-53.44,23,0,23,37.85Z" transform="translate(36.11 -32.36)"/><polygon class="cls-2" points="955.59 159.04 977.69 159.04 955.59 202.3 973.24 202.3 1001.87 153.31 1001.87 113.71 955.59 113.71 955.59 159.04"/><path class="cls-2" d="M1102.53,266.63q-13.2-4.77-40.72-8.4-18.45-2.37-22.82-5.79a11.05,11.05,0,0,1-4.37-9.16q0-14.5,23.86-14.5,25.27,0,31.33,21.79l34.51-9.23q-8.11-22.11-23.38-32.13t-40.72-10q-32.12,0-49.93,15T992.47,252q0,22.58,15.35,35.23t64,18.64q18,2,18,13.21,0,7.17-8.11,11.39t-19.88,4.23q-30.71,0-35.63-21.63L986.27,319q11.93,47.57,73.32,47.56,33.87,0,52.72-15.59t18.85-40.4q0-16.53-7.71-27.83A42,42,0,0,0,1102.53,266.63Z" transform="translate(36.11 -32.36)"/><polygon class="cls-2" points="1424.52 268.94 1401 170.17 1358.14 170.17 1333.55 268.3 1307.35 170.17 1257.93 170.17 1307.72 330.81 1347.29 330.81 1372.67 227.43 1398.12 330.81 1439.83 330.81 1488.38 170.17 1451.84 170.17 1424.52 268.94"/><path class="cls-2" d="M1537.91,199.19q-24.78,0-41,11a77.15,77.15,0,0,0-25.5,28.87q-9.3,17.88-9.29,43.49,0,36.9,20.57,60.44t54.89,23.54q35.43,0,56.8-23.78t21.37-59.4q0-36.1-20.57-60.12T1537.91,199.19Zm20.46,125.57q-7.45,10.58-19.51,10.58-13.78,0-20.29-12.41t-6.5-40.87q0-31,6.81-41.43t20.3-10.42q13.48,0,20.06,11.29t6.58,42.94Q1565.82,314.18,1558.37,324.76Z" transform="translate(36.11 -32.36)"/><path class="cls-2" d="M1689.08,232.44v-29.9h-43.42V363.17h46V297.8q0-19.56,5.09-31.09t13.12-16q8-4.44,22.51-4.45V199.51c-3.4-.32-6.26-.47-8.59-.47Q1699.09,199,1689.08,232.44Z" transform="translate(36.11 -32.36)"/><path class="cls-2" d="M1863.28,257l46.07-54.48h-46.19l-46.86,55.18c-2,2.44-4.5,5.68-7.47,9.7l-7,8.75V146.07h-44.69v217.1h44.69V322.45l27.88-32.05,33.53,72.77h52.31Z" transform="translate(36.11 -32.36)"/><path class="cls-2" d="M608.26,422.84A894.55,894.55,0,0,0,503.8,364.17l-2.11-1h27.49V146.07H481.79V353.68l-70-33.36,52.64-174.25H421.81L376.58,301.3,333.15,146.07H295.36l-7.46-17.91a605.94,605.94,0,0,0-50.4-95.8l48.09,113.71,59.83,141.49a35.68,35.68,0,0,0,17.52,18.33h0l46.53,22.18,72.32,34.47,1.31.63,125.16,59.67Z" transform="translate(36.11 -32.36)"/></svg>